<?xml version="1.0" encoding="utf-8"?>
<!-- Generator: Adobe Illustrator 18.1.1, SVG Export Plug-In . SVG Version: 6.00 Build 0)  -->
<svg version="1.2" baseProfile="tiny" id="Layer_1" xmlns="http://www.w3.org/2000/svg" xmlns:xlink="http://www.w3.org/1999/xlink"
	 x="0px" y="0px" viewBox="0 0 326 141.7" xml:space="preserve">
<g>
	<path fill="#EC1C24" d="M55.7,8.1h-17C22,8.1,7.8,20.9,7.8,45.6c0,14.8,6.9,25.8,19.1,31.2L4.1,118.1c-0.7,1.3,0,2.4,1.2,2.4h10.6
		c0.9,0,1.5-0.3,1.8-1l20.8-40.6h7.5v40.6c0,0.4,0.4,1,1,1h9.3c0.9,0,1.2-0.4,1.2-1.2V9.6C57.4,8.6,56.8,8.1,55.7,8.1z M45.9,69.2
		h-6.3c-9.9,0-19.4-7.2-19.4-25.2c0-18.7,9-26.4,18.1-26.4h7.6V69.2z"/>
	<path d="M111.9,45.4h-9.3c-0.7,0-1.2,0.6-1.2,1V75H84.2V46.4c0-0.7-0.3-1-1-1h-9.3c-0.7,0-1.2,0.4-1.2,1v72.8c0,0.7,0.3,1.2,1,1.2
		h9.4c0.6,0,1-0.4,1-1.2V84.5h17.2v34.7c0,0.7,0.4,1.2,1.2,1.2h9.3c0.7,0,1-0.6,1-1.2V46.4C112.9,45.8,112.4,45.4,111.9,45.4z"/>
	<path d="M323.2,115.6l-1.2-5.1c-0.1-0.4-0.3-0.6-0.7-0.6c-0.7,0-4.8,1.6-10.6,1.6c-11.3,0-16.9-10.9-16.9-28.3
		c0-15.3,4.6-30.4,12.4-30.4c2.1,0,4.6,0.6,8.7,4.3c0.4,0.4,0.7,0.6,1.2,0.6c0.4,0,0.9-0.3,1.3-1.1l4-6.6c0.3-0.5,0.4-0.9,0.4-1.4
		c0-0.6-0.6-1-1.5-1.5c-6.1-3.1-10.3-3.7-13.9-3.7c-14,0-24.9,16.8-24.9,43c0,22.6,10.5,35.6,25.4,35.6c6.3,0,13-3,15.7-4.9
		C323.2,116.8,323.4,116.2,323.2,115.6z"/>
	<path d="M258.3,79.2l17.9-32.8c0.3-0.4,0.1-1-0.4-1H267c-2.5,0-3.4,0.9-4.3,2.8l-13.4,28c-0.7,1.6-1.5,2.7-2.2,3.1v-33
		c0-0.6-0.3-1-0.9-1h-9.7c-0.4,0-0.9,0.4-0.9,1v72.9c0,0.4,0.3,1,0.9,1h9.7c0.6,0,0.9-0.4,0.9-1V81.8c0.4,0.3,0.7,0.7,1,1.3l17,35
		c0.9,1.8,2.2,2.2,4.2,2.2h9.6c0.6,0,0.7-0.6,0.4-1L258.3,79.2z"/>
	<path d="M172.8,111H171c-2.2,0-2.8-0.9-2.8-2.7V46.4c0-0.7-0.3-1-0.9-1h-29.9c-0.7,0-1.2,0.4-1.2,1v5.4c0,18.1-1,41.5-10.6,59.2
		h-3.3c-0.9,0-1.2,0.5-1.2,1.2c0,0,0,18,0,21.9c0,0.8,0.6,1,1,1h7.2c1.6,0,2.2-1.2,2.2-2.2v-12.4h32V134c0,0.6,0.4,1,1,1h7.6
		c0.9,0,1.8-0.7,1.8-2.2v-20.7C174,111.4,173.5,111,172.8,111z M156.6,111H135c7.6-13,10.6-27.7,11.6-45.7c0.3-3.9,0.4-7.9,0.4-10.5
		h9.6V111z"/>
	<path d="M203.2,43.6c-16.1,0-23.3,20.4-23.3,42.5c0,22.6,10.2,36.1,25.1,36.1c7.3,0,13.7-2.8,17-4.9c0.6-0.3,0.7-0.7,0.6-1.3
		l-1.2-5.1c-0.1-0.6-0.4-0.9-1.2-0.9c-0.6,0-4.9,1.6-11,1.6c-11.5,0-16.9-10-16.9-23.2c0-1.8,0-3.5,0-3.5s5.8,0.7,9.3,0.7h21.8v-6.3
		C223.4,56,215.2,43.6,203.2,43.6z M201.6,76.1c-3.4,0-8.8,0.6-8.8,0.6s0-2.2,0.3-4.6c1.3-12.7,4.5-19.2,9.7-19.2
		c4.8,0,7.8,6.6,8.5,18.1c0.1,2.4,0.1,5.1,0.1,5.1H201.6z"/>
</g>
</svg>
